# xmcd CD database file
# 
# Track frame offsets:
# 	150
# 	14002
# 	26835
# 	38082
# 	54605
# 	69007
# 	82692
# 	95517
# 	111355
# 	124145
# 	135590
# 	148965
# 	158705
# 	175782
# 	185917
# 	197052
# 	205910
# 	215062
# 	228210
# 	236862
# 
# Disc length: 3328 seconds
# 
# Submitted via: Nero 6, 0, 0, 28
# 
# Revision: 0
# Processed by: cddbd v1.4PL0 Copyright (c) Steve Scherf et al.
#
DISCID=230cfe14
DTITLE=Various Artist - Country Roads Vol 2
DYEAR=1900
DGENRE=
TTITLE0=Lobo - Me And You And A Dog Named Boo
TTITLE1=Lynn Anderson - Top Of The World
TTITLE2=Conway Twitty - Hello Darling
TTITLE3=Crystal Gayle - When I Dream
TTITLE4=Eddie Rabbit - I Love A Rainy Night
TTITLE5=Mel McDaniel - Baby's Got Her Blue Jeans On
TTITLE6=Billie Jo Spears - What I've Got In Mind
TTITLE7=Ed Bruce - (When You Fall In Love) Everything's A Waltz
TTITLE8=Johnny Tillotson - It Keeps Right On Hurtin'
TTITLE9=The Kendall's - Heaven's Just A Sin Away
TTITLE10=Lee Greenwood - Heart's Ain't Made To Break
TTITLE11=Ned Miller - From A Jack To A King
TTITLE12=Nancy Peppers - Love Don't Come Easy
TTITLE13=Ricky Nelson - Never Been Anyone Else But You
TTITLE14=Johnny Rodriguez - Pass Me By
TTITLE15=Sandy Posey - Born A Woman
TTITLE16=Pete Drake - Country Pie
TTITLE17=Ray Stevens - Misty
TTITLE18=Roger Miller - England Swings
TTITLE19=Bill Anderson - Still
EXTD=
EXTT0=
EXTT1=
EXTT2=
EXTT3=
EXTT4=
EXTT5=
EXTT6=
EXTT7=
EXTT8=
EXTT9=
EXTT10=
EXTT11=
EXTT12=
EXTT13=
EXTT14=
EXTT15=
EXTT16=
EXTT17=
EXTT18=
EXTT19=
PLAYORDER=
